<?xml version="1.0" encoding="UTF-8"?>
<svg xmlns="http://www.w3.org/2000/svg" height="1534" width="3296" version="1.1">
<title>Deutscher Handballbund</title>
<defs>
<linearGradient style="stop-opacity:1" id="a" x1="0" y1="0" x2="1" y2="0" spreadMethod="pad" gradientUnits="userSpaceOnUse" gradientTransform="matrix(467.49 0 0 467.88 -1070.8 1178.5)">
<stop offset="0"/>
<stop offset="0.25"/>
<stop style="stop-color:#a00000" offset="0.33"/>
<stop style="stop-color:#dc0000" offset="0.41"/>
<stop style="stop-color:#ec0000" offset="0.5"/>
<stop style="stop-color:#ec4200" offset="0.59"/>
<stop style="stop-color:#f27604" offset="0.66"/>
<stop style="stop-color:#f5c211" offset="0.75"/>
<stop style="stop-color:#f5cb14" offset="1"/>
</linearGradient>
</defs>
<g transform="translate(1130.8,217.549)">
<path d="m-1070.81 1256.43h468.791v-156.34h-468.791v156.34z" fill="url(#a)"/>
<path d="m1060.4-156.928 520.86 0.52c99.83 0.1 187.65-2.082 280.08 13.8 39.57 6.798 78.93 17.922 114.16 37.66 28.62 16.042 53.74 38.709 71.14 66.679 24.38 39.192 33.77 85.815 35.26 131.4 1.25 38.194-1.41 76.694-9.23 114.141-9.32 44.678-28.1 86.593-51.07 114.014 35.96 28.845 62.09 75.014 72.83 125.625 9.25 43.682 9.49 88.809 5.15 133.04-4.08 41.649-14.38 83.372-35.32 119.961-15.86 27.712-38.38 51.528-65.13 68.978-28.47 18.568-60.37 30.809-93.29 38.634-47.85 11.374-103.43 18.884-215.59 18.884l-428.42-0.213c-0.47-21.28 1.92-42.551 5.97-63.4 7.1-36.45 20.75-73.033 46.72-100.401 22.28-23.494 54.49-36.187 86.61-36.279l408.07-0.542c22.38 0.494 45.08-5.751 63.1-19.319 23.77-17.893 37.31-47.642 36.43-77.36-1.14-38.449-27.16-74.244-63.23-87.479-21.34-7.828-44.17-5.795-66.31-5.801l-393.85-0.112c-24 0-47.9-8.845-66.21-24.499-21.82-18.666-34.55-46.738-34.43-75.442 0.16-25.944 10.3-51.66 28.36-70.26 18.76-19.32 44.05-30.408 73.24-30.371l398.63 0.499c25.41 0.03 42.5-6.353 59.24-19.138 13.41-10.237 25.34-22.982 31.83-39 8.94-22.052 11.66-46.812 4.5-69.639-9.18-29.2954-33.83-52.697-63.29-61.001-18.3-5.155-37.36-3.819-56.07-3.819l-686.36 0.764-0.24 786.154c-18.99 4.014-78.793 4.737-113.844-5.284-27.89-7.974-52.031-19.875-69.38-41.673-14.674-18.445-20.105-42.455-19.945-65.64 0 0-0.16-189.996-5.206-277.879h-417.917c-4.373 91.92-5.831 183.962-5.078 275.96 0.208 26.426-5.799 54.015-23.356 74.48-40.77 47.49-109.814 47.451-178.682 47.69v-988.549c45.383-4.42 92.465-3.39 135.91 11.84 27.745 9.73 53.585 29.139 64.702 57.281 8.459 21.405 6.6 44.617 6.633 67.04 0.16 81.799 0.16 163.599-0.161 245.399l418.221 0.112c-0.24-84.48-0.32-253.439-0.32-253.439-0.16-20.1-1.393-40.6579 5.046-60.16 7.358-22.286 30.382-43.674 54.375-53.989 42.599-18.314 81.532-20.047 134.862-19.867z"/>
<path d="m-707.783-153.447c106.978 0.498 213.957 0.4 320.935 0.259 106.337-0.144 212.194 35.479 297.065 99.48 55.364 41.758 102.061 95.018 135.974 155.52 40.7856 72.737 62.5561 155.902 63.0211 239.279 0.416 77.462-17.3656 154.96-51.9196 224.279-33.0002 66.18-81.0106 124.71-139.146 170.44-88.2989 69.47-193.884 105.47-304.995 105.52l-680.082 0.301c-1.94-14.3-3.87-28.663-3.87-43.079v-27.081c0-27.887 5.49-55.932 16.43-81.799 10.48-24.736 31.21-45.71 57.223-53.542 13.73-4.13 28.12-4.559 42.33-4.359 14.17 0.2 380.012 1.043 570.019 1.544 54.707 0.145 109.077-17.136 154.861-47.121 54.819-35.913 96.87-90.773 117.086-153.14 18.0539-55.735 18.6629-116.915 1.634-172.938-16.227-53.4-48.427-101.736-91.151-137.603-48.603-40.7923-110.806-65.639-174.276-67.361-41.186-1.118-82.436-0.221-123.638-0.24-0.241 88.019 0.24 176.038 0.176 264.059 0 23.323-6.023 47.407-21.418 65.4-17.638 20.626-43.349 32.332-69.236 38.621-38.415 9.331-78.56 9.578-117.68 5.219z"/>
<path d="m-475.284 1253.71v-156.4h42.765q90.235 0 90.235 78.2t-90.235 78.2zm31.39-131.68v107.08h17.391q20.891 0 35.656-14 15.86-15.21 15.86-39.6t-15.86-39.48q-14.765-14-35.656-14z"/>
<path d="m-294.816 1184.7h51.079q-1.641-27.13-24.391-27.13-24.391 0-26.688 27.13zm71.204 38.06v24.5q-16.625 9.19-39.594 9.19-28.656 0-44.461-15.75t-15.805-44.08q0-26.47 13.344-42.98 14.437-17.94 40.141-17.94 30.187 0 43.531 19.69 11.375 16.84 11.375 49.98h-79.735q0.985 13.67 9.899 21.38t23.023 7.71q17.5 0 38.282-11.7z"/>
<path d="m-85.4721 1138.32v115.39h-28.4369v-15.64h-0.438q-15.094 18.38-37.844 18.38-19.687 0-29.859-12.91-9.406-11.81-9.406-32.37v-72.85h30.078v61.58q0 15.21 2.516 21.88 4.265 11.37 16.953 11.37 14.547 0 21.328-13.67 5.14-10.06 5.14-24.72v-56.44z"/>
<path d="m-44.6751 1219.04v-58.73h-22.094v-21.99h22.094v-23.07l30.0782-9.63v32.7h26.6875v21.99h-26.6875v53.81q0 19.03 14.1094 19.03 8.75 0 13.6718-3.17l0.875 23.73q-9.4062 2.74-22.2031 2.74-17.3906 0-26.9613-10.06-9.57-10.07-9.57-27.35z"/>
<path d="m103.091 1139.96-1.969 22.54q-14.4377-4.93-26.9064-4.93-17.7187 0-17.7187 12.8 0 7 13.5624 11.49 20.0157 6.56 25.1563 9.95 13.5624 8.97 13.5624 27.01 0 18.82-15.0937 28.88-13.0156 8.75-33.3593 8.75-15.4219 0-34.0157-4.92l1.75-24.72q15.3125 7.65 29.6407 7.65 7.3281 0 12.6875-2.84 7-3.72 7-11.26 0-8.97-13.5625-13.46-22.3125-7.54-25.1563-9.29-13.4531-8.21-13.4531-26.15 0-17.5 13.7812-27.23 12.25-8.53 31.3907-8.53 12.9062 0 32.7035 4.26z"/>
<path d="m209.403 1139.53-2.734 23.73q-9.297-4.26-20.344-4.26-13.891 0-22.203 10.06-8.313 10.06-8.313 26.47 0 16.73 7.766 26.79 8.203 10.83 23.406 10.83 10.719 0 23.078-5.47l1.313 24.94q-12.359 3.83-29.969 3.83-27.562 0-42.656-17.28-14.219-16.3-14.219-43.64 0-26.03 14.328-42.44 15.203-17.39 41.453-17.39 16.297 0 29.094 3.83z"/>
<path d="m231.169 1253.71v-168h30.078v68.36h0.437q12.469-18.37 36.313-18.37 19.578 0 29.859 12.8 9.297 11.81 9.297 32.37v72.84h-29.969v-61.57q0-15.21-2.515-21.88-4.266-11.26-17.063-11.26-14.437 0-21.328 13.56-5.031 10.06-5.031 24.72v56.43z"/>
<path d="m389.434 1184.7h51.079q-1.641-27.13-24.391-27.13-24.391 0-26.688 27.13zm71.204 38.06v24.5q-16.625 9.19-39.594 9.19-28.656 0-44.461-15.75t-15.805-44.08q0-26.47 13.344-42.98 14.437-17.94 40.141-17.94 30.187 0 43.531 19.69 11.375 16.84 11.375 49.98h-79.735q0.985 13.67 9.899 21.38t23.023 7.71q17.5 0 38.282-11.7z"/>
<path d="m493.45 1253.71v-115.39h26.688v26.25h0.437q1.203-9.51 9.625-18.48 9.734-10.39 21.984-10.39 6.016 0 9.188 0.87v30.19q-4.266-2.4-13.453-2.4-15.86 0-21.328 17.28-3.063 9.73-3.063 29.75v42.32z"/>
<path d="m644.716 1253.71v-156.4h31.39v63.22h62.672v-63.22h31.391v156.4h-31.391v-68.57h-62.672v68.57z"/>
<path d="m809.981 1170.15-0.984-25.7q18.922-8.75 40.141-8.75 26.359 0 38.062 11.48 11.703 11.49 11.703 37.08v14.77q0 11.7 0.438 28.87 0.328 12.03 1.312 25.81h-26.469q-0.328-2.18-1.312-17.28h-0.438q-5.031 9.3-15.312 14.77-9.625 5.25-20.344 5.25-16.297 0-27.781-8.97-12.469-9.62-12.469-25.37 0-23.19 19.688-32.93 13.672-6.67 38.718-6.67h16.625q0-13.67-6.343-19.47-6.016-5.47-19.688-5.47-19.031 0-35.547 12.58zm15.203 50.21q0 14.1 19.032 14.1 17.937 0 24.609-16.62 2.734-6.89 2.734-17.39h-13.015q-33.36 0-33.36 19.91z"/>
<path d="m928.544 1253.71v-115.39h28.437v15.75h0.547q13.016-18.37 37.844-18.37 19.578 0 29.858 12.8 9.3 11.81 9.3 32.37v72.84h-29.97v-61.57q0-15.21-2.52-21.88-4.262-11.26-17.059-11.26-14.437 0-21.328 13.56-5.031 10.06-5.031 24.72v56.43z"/>
<path d="m1089.43 1195.75q0 14.54 5.36 24.61 6.67 12.79 20.02 12.79 13.56 0 20.67-12.58 5.8-10.28 5.8-24.82 0-14.11-6.24-24.5-7.44-12.25-20.67-12.25-13.24 0-19.8 12.57-5.14 9.85-5.14 24.18zm52.94 57.96v-13.01h-0.44q-12.58 15.75-35.44 15.75-24.82 0-37.4-18.59-10.94-15.97-10.94-42.11 0-26.25 10.94-42 12.58-18.05 37.4-18.05 21.33 0 34.46 16.08h0.54v-66.07h29.97v168z"/>
<path d="m1232.71 1195.75q0 14.54 5.69 24.82 7.11 12.58 20.67 12.58 13.46 0 20.13-12.79 5.25-10.07 5.25-24.61 0-14.33-5.14-24.18-6.57-12.57-19.69-12.57-13.34 0-20.67 12.25-6.24 10.39-6.24 24.5zm-30.29 57.96v-168h30.07v67.38h0.44q13.13-17.39 34.45-17.39 24.94 0 37.52 18.05 10.94 15.75 10.94 42 0 26.14-10.94 42.11-12.69 18.59-37.52 18.59-23.4 0-35.32-16.84h-0.44v14.1z"/>
<path d="m1345.48 1170.15-0.99-25.7q18.93-8.75 40.14-8.75 26.36 0 38.07 11.48 11.7 11.49 11.7 37.08v14.77q0 11.7 0.44 28.87 0.33 12.03 1.31 25.81h-26.47q-0.33-2.18-1.31-17.28h-0.44q-5.03 9.3-15.31 14.77-9.63 5.25-20.34 5.25-16.3 0-27.79-8.97-12.46-9.62-12.46-25.37 0-23.19 19.68-32.93 13.67-6.67 38.72-6.67h16.63q0-13.67-6.35-19.47-6.01-5.47-19.68-5.47-19.04 0-35.55 12.58zm15.2 50.21q0 14.1 19.03 14.1 17.94 0 24.61-16.62 2.74-6.89 2.74-17.39h-13.02q-33.36 0-33.36 19.91z"/>
<path d="m1464.7 1253.71v-168h30.08v168z"/>
<path d="m1526.82 1253.71v-168h30.08v168z"/>
<path d="m1618.59 1195.75q0 14.54 5.69 24.82 7.1 12.58 20.67 12.58 13.45 0 20.12-12.79 5.25-10.07 5.25-24.61 0-14.33-5.14-24.18-6.56-12.57-19.69-12.57-13.34 0-20.67 12.25-6.23 10.39-6.23 24.5zm-30.3 57.96v-168h30.08v67.38h0.44q13.12-17.39 34.45-17.39 24.94 0 37.52 18.05 10.93 15.75 10.93 42 0 26.14-10.93 42.11-12.69 18.59-37.52 18.59-23.41 0-35.33-16.84h-0.44v14.1z"/>
<path d="m1831.21 1138.32v115.39h-28.43v-15.64h-0.44q-15.1 18.38-37.85 18.38-19.68 0-29.86-12.91-9.4-11.81-9.4-32.37v-72.85h30.08v61.58q0 15.21 2.51 21.88 4.27 11.37 16.96 11.37 14.54 0 21.32-13.67 5.14-10.06 5.14-24.72v-56.44z"/>
<path d="m1862.17 1253.71v-115.39h28.43v15.75h0.55q13.02-18.37 37.84-18.37 19.58 0 29.86 12.8 9.3 11.81 9.3 32.37v72.84h-29.97v-61.57q0-15.21-2.51-21.88-4.27-11.26-17.07-11.26-14.43 0-21.32 13.56-5.04 10.06-5.04 24.72v56.43z"/>
<path d="m2023.06 1195.75q0 14.54 5.36 24.61 6.67 12.79 20.01 12.79 13.56 0 20.67-12.58 5.8-10.28 5.8-24.82 0-14.11-6.23-24.5-7.44-12.25-20.68-12.25-13.23 0-19.79 12.57-5.14 9.85-5.14 24.18zm52.93 57.96v-13.01h-0.43q-12.58 15.75-35.44 15.75-24.83 0-37.41-18.59-10.93-15.97-10.93-42.11 0-26.25 10.93-42 12.58-18.05 37.41-18.05 21.33 0 34.45 16.08h0.55v-66.07h29.97v168z"/>
</g>
</svg>
