<?xml version="1.0" encoding="UTF-8" standalone="no"?>
<!-- Created with Inkscape (http://www.inkscape.org/) -->
<svg
   xmlns:dc="http://purl.org/dc/elements/1.1/"
   xmlns:cc="http://web.resource.org/cc/"
   xmlns:rdf="http://www.w3.org/1999/02/22-rdf-syntax-ns#"
   xmlns:svg="http://www.w3.org/2000/svg"
   xmlns="http://www.w3.org/2000/svg"
   xmlns:sodipodi="http://sodipodi.sourceforge.net/DTD/sodipodi-0.dtd"
   xmlns:inkscape="http://www.inkscape.org/namespaces/inkscape"
   id="svg2523"
   sodipodi:version="0.32"
   inkscape:version="0.45.1"
   width="923"
   height="916"
   version="1.0"
   sodipodi:docbase="C:\galleries\Wikipedia\SVG"
   sodipodi:docname="VfL_Gummersbach_Logo_01.svg"
   inkscape:output_extension="org.inkscape.output.svg.inkscape">
  <metadata
     id="metadata2528">
    <rdf:RDF>
      <cc:Work
         rdf:about="">
        <dc:format>image/svg+xml</dc:format>
        <dc:type
           rdf:resource="http://purl.org/dc/dcmitype/StillImage" />
      </cc:Work>
    </rdf:RDF>
  </metadata>
  <defs
     id="defs2526" />
  <sodipodi:namedview
     inkscape:window-height="1176"
     inkscape:window-width="1600"
     inkscape:pageshadow="2"
     inkscape:pageopacity="0.0"
     guidetolerance="10.0"
     gridtolerance="10.0"
     objecttolerance="10.0"
     borderopacity="1.0"
     bordercolor="#666666"
     pagecolor="#ffffff"
     id="base"
     inkscape:zoom="0.57741907"
     inkscape:cx="461.5"
     inkscape:cy="458"
     inkscape:window-x="-4"
     inkscape:window-y="-4"
     inkscape:current-layer="svg2523" />
  <path
     id="path2534"
     d="M 434.89839,906.49649 C 384.8304,902.56935 345.50171,894.21879 304.63025,878.837 C 223.6752,848.36993 153.72117,796.00028 102.4782,727.50001 C 52.163576,660.24075 21.950159,582.26452 14.910065,501.50001 C 14.334755,494.90001 13.42054,484.77501 12.878477,479.00001 C 12.336414,473.22501 11.893492,462.87501 11.894207,456.00001 C 11.895466,443.90008 12.340315,437.86036 15.503251,407.00001 C 28.162635,283.48408 94.143886,169.01062 195.89839,94.025389 C 259.23866,47.348501 330.40904,19.44956 411.89839,9.3529276 C 430.12177,7.0950276 489.53692,6.7556746 508.39839,8.8017616 C 565.74647,15.022869 618.53992,30.443175 666.39839,54.951589 C 754.86128,100.2536 822.09751,168.08139 867.18027,257.50001 C 889.23925,301.25249 906.04106,359.79048 910.3774,408.00001 C 911.24315,417.62501 912.34285,429.32501 912.82118,434.00001 C 914.19826,447.45888 914.08545,461.95335 912.43594,483.50001 C 910.50965,508.66217 910.6733,507.96809 906.62934,508.12686 C 904.85232,508.19662 846.47339,508.18366 776.89839,508.09805 C 694.62853,507.99682 649.87392,508.28936 648.89839,508.9347 C 647.62025,509.78024 647.35538,515.27148 647.10762,546.06192 C 646.89537,572.44005 647.13093,582.57528 647.98007,583.59843 C 648.9045,584.7123 653.12102,585.00001 668.52083,585.00001 C 684.02311,585.00001 687.89839,585.26724 687.89839,586.33624 C 687.89839,588.29526 675.80766,607.03449 668.15549,616.93544 C 658.80872,629.02899 632.25414,655.24617 620.35852,664.12512 C 576.29873,697.01155 526.5034,714.75133 472.89839,716.65836 C 412.17248,718.81872 354.39163,700.80472 306.35279,664.7354 C 293.8141,655.32089 273.51626,636.02502 263.37372,623.87791 C 242.82929,599.27309 226.47284,569.90745 216.47563,539.67917 C 207.88094,513.6917 204.04639,491.78597 203.22813,464.00001 C 201.64441,410.22051 216.77056,357.23766 246.32305,313.05008 C 281.09154,261.06342 332.08336,223.93935 391.96748,207.01515 C 470.99735,184.68006 553.92095,200.32513 620.68675,250.16727 C 632.94821,259.32072 654.66504,280.46809 665.18636,293.50001 C 673.53191,303.83699 685.68705,321.75514 690.28604,330.50001 C 694.15869,337.86375 693.77516,338.00001 669.17588,338.00001 C 650.74463,338.00001 648.76818,338.16425 648.11701,339.75001 C 647.26715,341.8196 647.25715,398.6921 648.10648,399.54144 C 648.42679,399.86175 705.916,400.18648 775.86029,400.26307 C 875.37263,400.37204 903.19665,400.13545 903.79006,399.17528 C 904.20716,398.50041 904.10192,395.48489 903.5562,392.47413 L 902.56398,387.00001 L 878.48118,386.90111 C 865.23565,386.84672 851.92339,386.50922 848.89839,386.15111 L 843.39839,385.50001 L 843.691,363.86405 C 843.94572,345.02971 843.77461,342.01909 842.36957,340.61405 C 840.98255,339.22703 837.63603,338.9971 818.57696,338.97933 L 796.39839,338.95865 L 791.44071,326.30612 C 766.26842,262.06376 719.35904,203.77789 660.89839,164.10462 C 630.1999,143.27164 600.12462,129.0486 563.59572,118.08876 C 510.5544,102.17467 451.74383,99.152639 396.89839,109.52289 C 327.59219,122.62739 263.55734,156.62649 212.87074,207.23178 C 164.77017,255.25519 130.23966,318.60139 116.97011,383.16141 C 107.93967,427.09705 106.93317,470.76621 113.94296,514.50001 C 138.76132,669.34047 267.22836,791.39659 423.40419,808.51813 C 452.79921,811.7407 498.16215,810.55887 521.89839,805.95209 C 550.51394,800.39831 571.22979,794.50056 594.17392,785.3754 C 660.77617,758.88688 718.47954,711.70965 757.91945,651.50001 C 763.32356,643.25001 768.49637,635.67073 769.41459,634.65716 C 770.85474,633.06747 772.47941,632.8429 781.24124,633.02242 C 786.82767,633.13687 795.22339,633.15643 799.89839,633.06589 L 808.39839,632.90126 L 813.89839,624.88852 C 828.91088,603.01738 858.06232,581.76218 886.61439,571.86906 C 896.34889,568.49612 898.89839,568.27721 898.89839,570.8143 C 898.89839,571.81216 896.3861,580.69966 893.31553,590.5643 C 850.36601,728.5455 745.28139,836.49106 608.31798,883.32092 C 553.67367,902.00463 488.56396,910.70581 434.89839,906.49649 z M 513.39839,899.59011 C 541.52985,895.98349 552.15436,893.99962 575.45754,888.00204 C 626.20245,874.94174 679.01345,850.10096 722.69474,818.74586 C 755.87396,794.92931 789.74221,761.9882 816.6312,727.38086 C 842.54958,694.02275 864.79864,653.74575 880.36772,612.00001 C 884.3098,601.43 891.89839,578.73697 891.89839,577.5185 C 891.89839,574.95466 873.46675,582.04752 861.60347,589.17659 C 844.56457,599.41587 828.55225,614.02198 816.49996,630.31911 C 810.89484,637.89835 810.75732,638.00248 806.10903,638.18657 C 803.51818,638.28917 800.04839,638.44111 798.39839,638.52419 C 796.74839,638.60728 790.3212,638.74833 784.11574,638.83764 L 772.83309,639.00001 L 765.49192,650.25912 C 725.05776,712.27272 671.6992,757.56464 604.39839,786.99882 C 575.31738,799.71748 541.35421,808.84343 505.39839,813.60025 C 484.77314,816.32889 439.44939,816.12013 417.98358,813.19761 C 394.2901,809.9718 371.03864,804.69832 350.4709,797.88558 C 329.3059,790.87501 325.61542,789.35687 304.03636,778.78406 C 253.72702,754.13465 209.74428,717.68593 175.64296,672.3838 C 136.79591,620.77719 114.31028,563.42773 105.70207,494.00001 C 103.6949,477.81162 104.00135,432.80579 106.23658,415.50001 C 111.31219,376.20321 121.48826,339.80862 136.52412,307.17698 C 138.37997,303.14931 139.89839,299.61548 139.89839,299.324 C 139.89839,299.03253 143.10349,293.1333 147.02084,286.21459 C 167.37065,250.27333 182.24741,230.50602 209.3259,203.42752 C 238.35257,174.40086 268.11136,152.75863 302.5921,135.59921 C 386.22393,93.979639 485.21158,86.731206 574.39839,115.69603 C 618.81874,130.12224 661.30564,154.07691 697.39839,185.04506 C 709.74707,195.64042 731.55808,218.17251 742.70645,231.85101 C 764.21785,258.24445 786.8903,297.45951 797.4284,326.50001 C 798.42631,329.25001 799.67039,332.06251 800.19303,332.75001 C 800.90436,333.68573 806.88045,334.00001 823.96182,334.00001 C 841.11851,334.00001 846.98109,334.31017 847.58937,335.25001 C 848.03433,335.93751 848.42977,346.28139 848.46811,358.2364 C 848.50646,370.19142 848.82521,380.26016 849.17645,380.6114 C 850.24395,381.67891 900.28608,380.99075 900.96064,379.89929 C 902.40406,377.56378 892.79335,337.91602 885.79174,317.32198 C 869.25406,268.6792 849.18843,230.25244 819.91791,191.17004 C 745.85632,92.281999 638.35664,29.892628 515.89839,14.72685 C 500.80232,12.857285 493.38447,12.562807 461.89839,12.583127 C 429.87222,12.603796 423.31469,12.881883 408.39839,14.851914 C 354.00137,22.036259 305.66857,36.984857 259.39839,60.935342 C 217.9422,82.393998 185.61562,105.74383 152.02833,138.48987 C 100.41466,188.8108 62.846657,248.68945 40.344358,316.50001 C 25.621684,360.86672 19.435899,396.11347 18.319182,442.00001 C 18.031403,453.82501 17.60634,464.40001 17.374596,465.50001 C 16.872627,467.88267 19.385895,501.1279 20.927695,512.50001 C 23.086078,528.41995 25.165471,540.71149 27.525431,551.50001 C 56.603129,684.42825 145.81743,797.97188 267.69174,857.16126 C 320.32925,882.72515 368.83269,895.86408 430.89839,901.37175 C 441.99151,902.35614 501.91772,901.062 513.39839,899.59011 z M 452.07577,888.71374 C 451.43239,887.93851 450.78095,878.70124 450.43611,865.46374 C 450.12143,853.38369 449.6357,841.02501 449.3567,838.00001 C 449.07771,834.97501 449.26194,831.87695 449.76611,831.11542 C 450.48891,830.02367 454.70729,829.70643 469.71161,829.61542 C 487.54958,829.50723 488.91747,829.63093 491.56941,831.59196 C 496.50498,835.24167 498.89879,839.7533 498.89465,845.39789 C 498.89114,850.19557 498.09546,852.17014 493.80041,858.03997 C 492.91695,859.24736 493.21968,860.38463 495.20218,863.30601 C 497.15372,866.18177 497.8677,868.79701 498.33085,874.76605 C 498.66091,879.01973 499.32469,883.71144 499.80594,885.19208 C 500.28718,886.67271 500.42986,888.13521 500.12299,888.44208 C 499.22359,889.34147 489.52896,889.05205 487.99351,888.07996 C 487.06179,887.49009 486.35416,884.23835 485.89244,878.42508 C 484.96258,866.71772 483.93505,865.815 471.99234,866.21335 L 463.39839,866.50001 L 463.39839,877.00001 C 463.39839,882.77501 463.03433,888.06251 462.58937,888.75001 C 461.52656,890.39215 453.44559,890.36428 452.07577,888.71374 z M 483.64839,853.37518 C 485.33523,852.30964 485.89839,851.00633 485.89839,848.16809 C 485.89839,841.37918 484.44602,840.50001 473.23088,840.50001 L 463.39839,840.50001 L 463.09692,846.89468 C 462.64611,856.45707 462.46359,856.29292 472.65136,855.48775 C 477.46223,855.10754 482.41089,854.15688 483.64839,853.37518 z M 406.39839,886.11528 C 387.44461,883.63682 386.38192,883.38416 386.08348,881.28543 C 385.91028,880.06742 386.96626,869.94242 388.43011,858.78543 C 389.89395,847.62845 391.49482,835.39085 391.98759,831.59077 C 392.48036,827.79068 393.071,824.49406 393.30013,824.26494 C 394.19986,823.3652 433.95615,828.80305 435.43174,830.02769 C 436.53276,830.94145 436.79886,832.2218 436.34241,834.40935 C 435.23638,839.70997 434.6577,839.83629 419.89839,837.99894 C 412.47339,837.07461 405.87348,836.50544 405.23192,836.73411 C 403.57484,837.32475 402.35518,847.04626 403.82425,847.95419 C 404.45524,848.34416 410.01756,849.21783 416.18495,849.89566 C 431.20729,851.54671 430.90135,851.42346 430.88308,855.8174 C 430.85489,862.59612 430.68313,862.65194 415.73126,860.7418 C 408.42818,859.80881 402.1267,859.37274 401.72796,859.77274 C 401.32923,860.17274 400.69726,863.48919 400.3236,867.14264 L 399.6442,873.78527 L 402.5213,874.37142 C 404.1037,874.69379 410.99583,875.66805 417.83715,876.53643 C 424.67846,877.4048 430.69239,878.37269 431.20143,878.6873 C 431.71046,879.0019 431.88465,881.06582 431.5885,883.27378 C 431.07474,887.10408 429.56814,889.10907 427.39839,888.84997 C 426.84839,888.78429 417.39839,887.55368 406.39839,886.11528 z M 528.89839,883.35933 C 522.98707,880.9856 520.46736,879.25959 518.33733,876.12496 C 515.10514,871.36836 515.12763,868.19814 518.39839,867.51906 C 519.77339,867.23358 522.0825,866.7516 523.52974,866.44799 C 525.63942,866.00541 526.8061,866.60017 529.41461,869.44799 C 532.23757,872.52994 533.27621,873.00001 537.26302,873.00001 C 548.80757,873.00001 556.40092,864.99628 549.28182,860.33167 C 547.40854,859.10425 543.36051,858.40921 535.03182,857.88498 C 528.63343,857.48224 522.14365,856.67295 520.61008,856.08656 C 516.23032,854.41185 513.10536,850.28392 511.79932,844.44794 C 510.76366,839.82011 510.83682,838.44976 512.32799,834.54519 C 515.57077,826.05409 524.957,820.97719 537.32989,821.02197 C 545.30637,821.05084 550.97549,823.64829 554.419,828.85179 C 558.08206,834.38705 557.47803,836.28801 551.70073,837.40638 C 547.27969,838.26221 546.81816,838.13675 543.4237,835.15638 C 540.73313,832.79403 538.86885,832.00001 536.01282,832.00001 C 528.10801,832.00001 523.89839,834.88827 523.89839,840.31182 C 523.89839,844.40625 526.16678,845.25023 539.26751,846.03006 C 558.52686,847.17649 563.89839,850.75371 563.89839,862.43326 C 563.89839,874.779 553.83767,882.98899 537.89839,883.65043 C 533.77339,883.82161 529.72339,883.69061 528.89839,883.35933 z M 355.64839,876.85951 C 353.80309,876.17093 352.9022,875.12055 352.90998,873.66668 C 352.91635,872.47501 354.94135,864.78867 357.40998,856.58592 C 364.34842,833.53086 363.68969,833.36965 350.92956,855.00001 C 342.51746,869.25981 341.20299,871.00001 338.84386,871.00001 C 335.317,871.00001 330.16901,869.1494 329.60869,867.68013 C 329.36116,867.03107 329.75642,859.75001 330.48705,851.50001 C 331.21767,843.25001 331.8161,834.25001 331.81689,831.50001 C 331.81823,826.78123 331.74513,826.64062 330.51713,829.00001 C 329.80148,830.37501 327.05273,838.47501 324.40881,847.00001 C 321.76488,855.52501 319.05574,863.09663 318.38849,863.82584 C 317.42514,864.87864 316.31247,864.91933 312.98535,864.02343 C 310.68088,863.4029 308.55548,862.26998 308.26225,861.50583 C 307.72181,860.09747 323.47342,807.19667 324.88735,805.67149 C 325.79519,804.69221 339.90011,808.65331 341.50497,810.33823 C 342.26426,811.1354 342.3755,814.32454 341.85941,820.50001 C 340.0796,841.79696 339.65893,854.26604 340.74285,853.59614 C 341.86672,852.90155 349.06064,840.89951 357.48867,825.65808 C 363.00637,815.67976 362.18028,815.98666 374.14839,819.4689 C 380.90295,821.43421 380.94854,821.61491 377.32901,832.07486 C 375.91585,836.15869 372.15666,848.05001 368.97525,858.50001 C 363.6395,876.02642 363.00503,877.51497 360.79463,877.69284 C 359.4767,877.7989 357.16089,877.4239 355.64839,876.85951 z M 586.18115,869.75001 C 585.15427,868.4159 569.95851,827.39773 567.83128,820.21791 C 567.06821,817.64241 566.9284,815.61328 567.48049,815.12653 C 567.98533,814.68142 574.92339,811.98769 582.89839,809.14046 C 599.92328,803.06224 605.3052,802.55337 611.07793,806.47604 C 615.77525,809.66795 618.66812,817.3532 616.98727,822.17488 C 615.37427,826.80194 615.58852,827.33345 619.86001,829.30171 C 622.65051,830.58754 624.36104,832.32427 625.83421,835.36743 C 630.07433,844.12636 627.29032,853.76815 619.08048,858.75743 C 615.20812,861.11073 589.88382,871.01589 587.77083,871.00365 C 587.42568,871.00165 586.71032,870.43751 586.18115,869.75001 z M 603.41125,854.39866 C 607.44142,852.96792 611.67474,850.92539 612.81861,849.8597 C 615.55369,847.3116 615.59493,841.69655 612.89839,839.00001 C 610.27104,836.37266 606.98198,836.55453 597.89839,839.8294 C 591.18123,842.25112 590.41564,842.79256 590.56368,845.01668 C 590.75071,847.82656 594.49547,857.00001 595.45548,857.00001 C 595.80098,857.00001 599.38107,855.8294 603.41125,854.39866 z M 598.11575,828.32198 C 604.55229,825.43343 606.72822,822.41908 604.87561,818.95745 C 602.76703,815.01753 600.42749,814.7634 592.1562,817.57584 C 581.57667,821.17313 581.19655,821.62495 583.79937,827.50906 C 585.78628,832.00081 586.06118,832.21745 589.02245,831.6252 C 590.74163,831.28136 594.83361,829.79491 598.11575,828.32198 z M 280.14839,850.25463 C 278.22517,849.29748 276.89839,847.87732 276.89839,846.77592 C 276.89839,845.75224 280.54949,837.93498 285.01195,829.40424 C 292.88241,814.35854 294.39414,809.33818 289.1988,815.50001 C 283.73425,821.98113 265.71347,842.00001 265.34378,842.00001 C 263.95661,842.00001 255.88706,837.41287 255.50005,836.40433 C 255.23969,835.72586 257.08037,827.81982 259.59045,818.83537 C 262.10053,809.85092 264.37184,801.15001 264.6378,799.50001 C 265.0657,796.84535 264.95126,796.67268 263.64364,798.00001 C 262.83088,798.82501 260.0222,803.55001 257.40212,808.50001 C 249.50025,823.42865 245.78296,829.95332 244.8516,830.52893 C 243.86403,831.13928 236.37375,827.57817 235.42865,826.04897 C 234.6004,824.70884 260.85155,774.95522 262.77665,774.21649 C 263.62378,773.89141 267.26023,775.23859 270.85764,777.21022 C 276.95058,780.54957 277.39271,781.02453 277.31543,784.14751 C 277.25043,786.77448 271.04855,812.93727 268.28325,822.25001 C 267.04377,826.42424 270.68743,823.01005 283.49104,808.00001 C 290.99746,799.20001 297.71268,792.00001 298.41374,792.00001 C 301.0143,792.00001 312.87996,799.51462 312.88913,801.16738 C 312.89422,802.08444 310.95358,806.13444 308.5766,810.16738 C 306.19962,814.20033 300.23712,825.25574 295.3266,834.73496 C 289.67451,845.64572 285.84798,851.95196 284.89839,851.921 C 284.07339,851.89411 281.93589,851.14424 280.14839,850.25463 z M 645.48755,845.25001 C 644.56066,840.77626 635.89839,788.3291 635.89839,787.19087 C 635.89839,785.90506 646.03579,780.00001 648.24317,780.00001 C 649.59725,780.00001 657.61452,786.90776 691.26351,817.06673 C 695.76487,821.10121 695.59047,822.09613 689.87038,825.0143 C 684.63707,827.68414 683.83588,827.56247 679.89839,823.50001 C 678.03261,821.57501 675.6511,820.00001 674.60615,820.00001 C 673.5612,820.00001 668.88464,822.08316 664.2138,824.62924 L 655.72136,829.25847 L 656.40413,836.0572 L 657.0869,842.85592 L 653.01252,845.42796 C 647.8168,848.70787 646.19602,848.66955 645.48755,845.25001 z M 664.88869,811.59108 C 664.87576,810.13601 650.95899,797.60607 650.19944,798.36563 C 649.35619,799.20887 652.64672,814.99184 654.00764,816.63165 C 654.94491,817.76099 655.97363,817.53961 660.01842,815.33817 C 662.7024,813.87736 664.89403,812.19117 664.88869,811.59108 z M 205.03785,804.85259 C 194.43734,801.80212 183.89839,789.54908 183.89839,780.27491 C 183.89839,779.17873 185.13589,775.85025 186.64839,772.87829 C 190.21755,765.86513 212.74417,737.00001 214.64815,737.00001 C 216.63983,737.00001 223.89839,742.85503 223.89839,744.46159 C 223.89839,745.17303 223.14401,746.37272 222.22198,747.12757 C 219.88779,749.03852 205.33849,767.36794 201.15778,773.66454 C 195.5206,782.15476 196.79458,788.27438 205.09873,792.59502 C 211.47335,795.91174 213.74961,794.16656 229.46577,773.91317 C 235.83052,765.71093 241.72937,759.00001 242.57431,759.00001 C 244.78894,759.00001 252.05276,765.00726 251.69797,766.54535 C 251.37663,767.93843 234.32862,789.08871 226.89839,797.31245 C 219.93509,805.01941 213.42302,807.26555 205.03785,804.85259 z M 705.22257,803.56052 C 691.72238,799.33926 681.05723,785.68198 680.12147,771.41725 C 679.35472,759.72901 684.21747,751.49519 695.09818,746.05804 C 704.54768,741.33606 714.55668,741.99598 721.14839,747.77559 C 723.65014,749.96912 723.38571,750.64914 718.86864,753.6384 C 714.98083,756.21123 714.64997,756.25984 709.47576,755.01857 C 704.4232,753.80648 703.86609,753.87003 699.85496,756.11599 C 688.59877,762.41872 689.90584,775.62868 702.94568,787.35262 C 710.83153,794.44268 717.52221,794.79926 723.51157,788.44868 C 727.27011,784.46346 728.40999,780.47581 726.91478,776.54312 C 725.93179,773.95766 726.17571,773.43677 730.03987,769.8694 C 732.34509,767.74123 734.81872,766.00001 735.53684,766.00001 C 737.53545,766.00001 740.23117,776.51746 739.46332,781.3193 C 737.89286,791.14045 729.41591,800.58097 719.53205,803.51616 C 713.56502,805.28818 710.77554,805.29683 705.22257,803.56052 z M 157.35037,764.56707 C 156.08188,762.63111 155.99159,761.69439 156.90834,759.98142 C 157.54199,758.79743 157.91147,757.69735 157.72941,757.5368 C 157.54735,757.37624 154.92339,756.53024 151.89839,755.6568 C 138.28089,751.72485 130.3545,737.2625 134.32723,723.59678 C 139.74355,704.9653 160.13536,693.29436 176.77922,699.30002 C 190.08959,704.10285 198.66774,718.74315 195.44684,731.16001 C 194.73021,733.92271 193.45224,736.87473 192.60692,737.72005 C 191.22433,739.10264 190.66748,738.91908 187.06217,735.89224 L 183.05437,732.52749 L 183.62038,725.77617 L 184.18638,719.02484 L 179.67397,714.51243 C 175.38493,710.22339 174.88079,710.00001 169.49013,710.00001 C 162.44299,710.00001 157.74595,712.27198 152.07577,718.4234 C 147.16358,723.7525 145.89839,726.57349 145.89839,732.19708 C 145.89839,738.99742 151.37112,745.73335 158.24908,747.39851 C 161.30235,748.1377 167.89839,746.4471 167.89839,744.92534 C 167.89839,744.41958 166.32339,742.26243 164.39839,740.13169 C 162.47339,738.00095 160.89839,735.60928 160.89839,734.81687 C 160.89839,733.00133 166.52415,728.76526 168.37699,729.18565 C 170.35293,729.63398 182.89839,744.15711 182.89839,745.99621 C 182.89839,747.94519 162.57512,767.00001 160.4964,767.00001 C 159.64285,767.00001 158.22714,765.90519 157.35037,764.56707 z M 754.39839,759.95588 C 736.45115,744.40655 720.37798,729.25092 720.0547,727.57271 C 719.66759,725.56312 725.51441,719.00001 727.69179,719.00001 C 728.46237,719.00001 732.16384,721.9648 735.91726,725.58842 C 739.67069,729.21205 743.39057,732.02455 744.18367,731.83842 C 744.97677,731.6523 748.69284,728.14758 752.44161,724.05017 L 759.25755,716.60034 L 751.57797,709.4492 C 747.3542,705.51607 743.89839,701.64427 743.89839,700.8452 C 743.89839,698.94528 750.05381,693.00001 752.02088,693.00001 C 753.88477,693.00001 794.89839,730.66415 794.89839,732.37582 C 794.89839,733.04588 793.14768,735.30364 791.00792,737.39306 L 787.11744,741.19201 L 777.82874,732.59601 C 768.16108,723.64931 768.04114,723.56728 766.37925,724.76532 C 764.30713,726.25909 752.89839,739.70613 752.89839,740.65469 C 752.89839,741.19496 756.94839,745.35106 761.89839,749.89046 C 766.84839,754.42987 770.89449,758.44904 770.88972,758.82197 C 770.87754,759.77367 763.92168,767.01228 763.08541,766.94351 C 762.70755,766.91244 758.79839,763.768 754.39839,759.95588 z M 530.39839,92.463959 C 529.84839,92.255969 521.75025,91.129779 512.40253,89.961299 C 503.0548,88.792824 494.8336,87.3612 494.1332,86.779913 C 493.27575,86.068294 493.0814,84.543206 493.5383,82.111516 C 493.91151,80.125185 495.85093,67.025005 497.84811,53.000005 L 501.47935,27.500005 L 506.43887,27.537558 C 509.16661,27.558211 512.24894,27.905784 513.28851,28.309941 C 515.44145,29.146952 515.50509,28.106627 511.47235,58.000005 C 510.1739,67.625005 509.40714,75.821074 509.76845,76.213493 C 510.12975,76.605911 515.1443,77.612736 520.91188,78.450882 C 526.67946,79.289029 532.91482,80.235967 534.76823,80.555189 L 538.13806,81.135594 L 537.45311,86.299027 C 536.6464,92.380339 534.6925,94.087799 530.39839,92.463959 z M 404.50667,89.10206 C 402.02291,86.327057 376.76104,34.800323 377.25421,33.515126 C 377.74389,32.239048 383.16795,31.029962 388.48787,31.011011 C 392.00299,30.998489 391.33805,29.894187 399.62079,49.500005 C 402.6414,56.650005 405.77786,63.789211 406.5907,65.364907 C 409.24529,70.510869 409.43194,69.81822 413.96477,38.000005 C 414.63077,33.325005 415.72917,28.900193 416.40567,28.167089 C 418.06223,26.37189 429.89839,25.278485 429.89839,26.920653 C 429.89839,27.579788 428.8223,32.929788 427.50708,38.809542 C 426.19185,44.689297 424.79788,51.525005 424.40935,54.000005 C 422.89936,63.619017 417.66631,86.550518 416.7669,87.489641 C 416.24562,88.033941 413.59645,88.979865 410.87985,89.591696 C 406.6709,90.539639 405.72857,90.467239 404.50667,89.10206 z M 457.14839,86.337724 C 456.21554,85.961313 455.89839,81.414332 455.89839,68.416672 L 455.89839,51.000005 L 453.59839,51.000005 C 450.45017,51.000005 448.89839,49.184088 448.89839,45.500005 C 448.89839,41.86281 450.44565,40.000005 453.46672,40.000005 C 455.24376,40.000005 455.73279,39.271308 456.17667,35.961906 C 457.21228,28.240916 462.34934,24.000005 470.66627,24.000005 C 475.45917,24.000005 476.89839,25.403528 476.89839,30.07756 C 476.89839,33.942827 475.71584,35.540202 472.39839,36.156092 C 469.51434,36.69152 469.75621,40.408966 472.70227,40.826616 C 476.96905,41.4315 478.09975,50.000005 473.91279,50.000005 C 468.93735,50.000005 468.89839,50.139148 468.89839,67.906994 C 468.89839,79.557114 468.53587,84.96252 467.69839,85.800005 C 466.52059,86.977801 459.60784,87.330134 457.14839,86.337724 z M 480.9485,710.95094 C 525.71077,707.45957 565.06571,694.22399 601.89493,670.27508 C 628.15473,653.19914 656.37229,625.47257 673.84938,599.57264 C 676.62634,595.45737 678.89839,591.62001 678.89839,591.04517 C 678.89839,590.35824 672.92047,590.00001 661.45741,590.00001 C 649.20512,590.00001 643.80099,589.65144 643.29229,588.82833 C 642.45887,587.47983 642.62263,505.25521 643.46144,503.89799 C 643.78482,503.37475 698.65973,503.00001 774.95741,503.00001 C 879.0002,503.00001 905.91508,502.74323 905.97963,501.75001 C 906.02431,501.06251 906.25708,499.15001 906.49689,497.50001 C 907.75274,488.85917 907.89731,431.57872 906.69375,419.50001 L 905.39839,406.50001 L 774.99634,406.24627 C 698.40233,406.09723 644.14124,405.61647 643.49634,405.08118 C 642.73645,404.45044 642.39839,393.13614 642.39839,368.33492 L 642.39839,332.50001 L 661.89839,332.24315 C 672.62339,332.10188 681.9803,331.77106 682.69151,331.50799 C 684.29698,330.91415 683.80944,329.95332 675.26072,316.86366 C 649.29394,277.10376 606.94251,241.41057 564.39839,223.43046 C 543.1261,214.44031 527.07994,209.60588 506.89839,206.1067 C 442.444,194.93127 376.69488,208.60408 322.89839,244.37028 C 297.65217,261.15505 275.67552,281.98174 258.09823,305.77966 C 233.03886,339.7076 216.67686,380.02512 210.32395,423.50001 C 207.71643,441.3441 207.9357,474.86364 210.78318,493.7027 C 217.65338,539.1562 235.99055,581.01 264.58367,616.50001 C 274.90802,629.31468 296.64899,650.42198 309.47848,660.08629 C 352.984,692.85854 405.11796,710.73641 460.4485,711.8572 C 464.32605,711.93575 473.55105,711.52793 480.9485,710.95094 z M 442.19487,697.47496 C 440.48939,696.228 440.37306,690.34502 439.89839,581.33074 L 439.39839,466.50001 L 427.74519,466.21911 C 419.97937,466.03192 415.74763,465.52328 415.05969,464.69437 C 414.32087,463.80414 415.03096,461.32538 417.55745,455.97527 C 419.49898,451.86388 422.86608,444.00001 425.03989,438.50001 C 429.28979,427.74724 431.51001,425.00001 435.95016,425.00001 C 437.50677,425.00001 439.00757,424.63238 439.28527,424.18305 C 439.56297,423.73372 439.89465,405.62122 440.02233,383.93305 L 440.25448,344.50001 L 435.08582,336.28268 C 432.24305,331.76315 427.21293,323.91887 423.90777,318.85095 C 420.60261,313.78303 417.89839,308.83864 417.89839,307.86342 C 417.89839,306.17165 429.04419,296.90914 454.1904,277.70361 C 459.80479,273.41559 470.81022,264.97809 478.6469,258.95361 C 486.48358,252.92913 493.48624,248.00001 494.20837,248.00001 C 494.93049,248.00001 502.52485,255.53751 511.08471,264.75001 C 529.92444,285.02616 531.89839,287.35697 531.89839,289.32649 C 531.89839,290.17226 527.96089,294.2126 523.14839,298.30503 C 518.33589,302.39746 513.54115,306.703 512.4934,307.87291 C 511.44566,309.04281 509.7245,310.00001 508.66861,310.00001 C 507.61271,310.00001 503.15744,306.7414 498.76801,302.75866 C 494.37858,298.77591 490.13741,295.15365 489.34321,294.70919 C 488.32771,294.14089 484.89457,296.36401 477.7744,302.20054 C 472.20577,306.76525 466.58059,311.32504 465.274,312.33342 C 463.96742,313.34179 462.89839,314.78874 462.89839,315.54886 C 462.89839,316.30899 465.8113,321.37668 469.37152,326.8104 L 475.84465,336.68989 L 475.86401,379.05173 C 475.87941,412.7315 476.15323,421.68342 477.20004,422.73023 C 478.04207,423.57226 481.199,424.06543 485.95755,424.09832 C 494.11715,424.15471 497.89839,425.73 497.89839,429.07296 C 497.89839,430.18772 496.56663,435.01485 494.93892,439.7999 C 493.31122,444.58496 491.04416,451.75581 489.90101,455.73511 C 487.62643,463.65298 486.79849,464.44273 479.64839,465.51486 C 477.03589,465.90659 474.89101,466.5135 474.88199,466.86355 C 474.87298,467.2136 474.74058,501.70001 474.58777,543.50001 C 474.34173,610.80388 474.11112,620.52982 472.57233,628.50001 C 468.54091,649.38087 462.66566,667.22665 453.44482,686.59892 C 447.93377,698.1772 445.87608,700.1665 442.19487,697.47496 z M 397.01515,676.67675 C 392.48713,674.96825 388.26672,670.59166 387.51297,666.82293 C 386.08512,659.68367 386.76197,657.15602 392.05217,649.87158 C 393.00547,648.55891 392.81436,647.70864 391.06659,645.48672 C 386.55059,639.74554 389.29559,629.30629 396.27344,625.68511 C 404.75688,621.2826 415.75857,624.252 419.6703,632.00001 C 422.21742,637.04512 421.97854,640.75446 418.81961,645.20952 C 416.35701,648.68253 416.37617,648.84549 419.64839,652.26095 C 422.05934,654.77745 422.39839,655.91558 422.39839,661.49234 C 422.39839,668.34642 420.88648,671.42654 415.57583,675.39151 C 412.27234,677.85792 402.02602,678.56743 397.01515,676.67675 z M 413.23184,669.11101 C 414.79613,667.54672 415.39839,665.72366 415.39839,662.5528 C 415.39839,657.06072 412.30941,653.4142 406.88003,652.49691 C 396.63505,650.76603 390.6667,661.92216 397.94429,669.19975 C 400.72019,671.97565 401.43672,672.20274 406.02773,671.7616 C 409.38975,671.43856 411.7859,670.55694 413.23184,669.11101 z M 409.28375,644.87029 C 412.95106,643.19935 414.65896,638.44675 412.79023,635.11278 C 409.62184,629.46013 401.83182,628.72659 397.91058,633.71165 C 395.14964,637.22161 395.38489,639.64036 398.82147,643.07693 C 401.93855,646.19402 405.16476,646.74703 409.28375,644.87029 z M 499.34881,676.59341 C 495.49929,674.91667 491.46028,670.15865 489.74112,665.27541 C 488.08705,660.57706 488.05036,644.90694 489.68053,639.40105 C 492.35122,630.38078 498.06327,624.97884 505.70732,624.24435 C 514.85821,623.36506 521.42416,627.30282 522.56883,634.35661 C 523.14263,637.89252 523.06847,638.00001 520.05491,638.00001 C 517.65014,638.00001 516.61626,637.35511 515.47123,635.14086 C 512.43449,629.26845 504.94628,628.77752 500.42208,634.15422 C 497.83544,637.22827 495.13325,644.56821 496.19668,645.63164 C 496.53699,645.97194 498.64319,645.51904 500.87714,644.62519 C 505.59949,642.73568 507.99664,642.62186 513.11734,644.04402 C 519.15688,645.72136 522.60462,649.32824 523.96071,655.38788 C 525.34788,661.58642 524.23719,666.37729 520.1428,671.85612 C 515.85299,677.59644 506.52859,679.72073 499.34881,676.59341 z M 511.28539,671.04297 C 516.06513,669.22572 518.44311,660.48441 515.75983,654.59525 C 515.13363,653.22088 513.04389,651.34787 511.11597,650.43302 C 501.14006,645.69914 491.98604,658.0711 498.51755,667.46022 C 501.34843,671.52964 506.32924,672.9273 511.28539,671.04297 z M 368.09839,675.80001 C 367.25782,674.95944 366.89839,669.43385 366.89839,657.35227 L 366.89839,640.10453 L 361.64839,639.80227 C 356.8859,639.52808 356.37206,639.26786 356.11479,637.00001 C 355.86658,634.81201 356.42635,634.31281 360.60004,633.00001 C 364.04156,631.91751 366.0184,630.52584 367.70246,628.00001 C 369.18061,625.78301 370.83558,624.50001 372.21721,624.50001 C 374.39315,624.50001 374.39903,624.55972 374.66614,649.37617 C 374.85463,666.88896 374.59638,674.65898 373.79369,675.62617 C 372.38807,677.31983 369.70025,677.40187 368.09839,675.80001 z M 545.09839,675.80001 C 544.25754,674.95916 543.89839,669.42223 543.89839,657.30001 L 543.89839,640.00001 L 538.52083,640.00001 C 532.81063,640.00001 530.38918,638.49056 531.49144,635.61813 C 531.83659,634.71867 533.30686,633.72505 534.75869,633.41009 C 540.37504,632.19169 542.64067,630.76367 544.2235,627.44443 C 545.45291,624.86633 546.49889,624.00001 548.38221,624.00001 L 550.89839,624.00001 L 550.89839,649.89302 C 550.89839,672.58157 550.70263,675.86115 549.3166,676.39302 C 547.08394,677.24977 546.46051,677.16213 545.09839,675.80001 z M 545.39839,594.35573 C 531.09839,584.72003 515.91089,574.7404 511.64839,572.17877 C 506.46972,569.06654 503.89839,566.90976 503.89839,565.67819 C 503.89839,564.6645 509.31344,556.2198 515.93184,546.91218 C 522.55024,537.60457 528.19891,529.38044 528.48444,528.63635 C 528.76998,527.89226 522.00418,492.00718 513.44932,448.89173 C 504.89447,405.77629 497.8958,369.56653 497.89672,368.42561 C 497.89799,366.84735 499.39321,365.68065 504.14839,363.54752 C 507.58589,362.00549 512.64839,359.72128 515.39839,358.47149 C 518.14839,357.2217 523.09839,355.08229 526.39839,353.71725 C 532.54637,351.17414 546.03738,345.25938 572.2697,333.60626 C 580.44891,329.97282 587.77152,327.00001 588.54217,327.00001 C 589.31281,327.00001 592.47652,330.93751 595.57265,335.75001 C 598.66878,340.56251 605.81584,351.5241 611.45501,360.10909 C 626.2615,382.65027 631.90273,391.80661 631.86646,393.23907 C 631.83939,394.30796 627.22089,397.28441 604.3071,411.00001 C 601.91014,412.43477 601.67201,412.34778 598.83212,409.00001 C 595.45333,405.01697 582.15059,386.47179 576.23669,377.50001 C 572.7791,372.25461 571.90127,371.51627 569.25685,371.62932 C 565.71937,371.78054 540.92821,383.87532 540.15204,385.82858 C 539.69899,386.96872 544.71433,412.86365 549.4819,434.00001 C 550.28829,437.57501 553.38687,452.65001 556.36764,467.50001 C 559.34841,482.35001 563.16223,501.12008 564.8428,509.21127 C 566.52338,517.30247 567.89401,525.17747 567.88865,526.71127 C 567.88228,528.53496 565.45577,532.96053 560.87667,539.50001 C 556.82735,545.28288 553.9849,550.33808 554.1364,551.48732 C 554.38952,553.40733 572.27556,567.9731 574.39839,567.98797 C 574.94839,567.99182 583.27339,561.71673 592.89839,554.04332 C 602.52339,546.3699 610.88518,540.07103 611.48015,540.04583 C 612.45612,540.00449 632.00183,562.00313 632.68245,563.90898 C 632.83869,564.34645 629.01369,567.86445 624.18245,571.72674 C 619.35122,575.58903 606.4007,586.23054 595.40353,595.37455 C 583.60714,605.18309 574.5865,611.97442 573.40353,611.9376 C 572.3007,611.90327 559.69839,603.99143 545.39839,594.35573 z M 294.32911,585.18566 C 277.241,573.80855 260.4785,562.81098 257.07911,560.74661 C 253.58049,558.62199 250.89839,556.28808 250.89839,555.36827 C 250.89839,554.47456 255.13787,547.98786 260.31946,540.9534 C 265.50105,533.91894 270.2468,527.21751 270.86557,526.06134 C 271.6765,524.54609 271.90793,504.38908 271.69449,453.86245 L 271.39839,383.76569 L 266.89839,379.85939 C 264.42339,377.71092 257.78589,372.7149 252.14839,368.75713 C 246.16095,364.55369 241.89839,360.87146 241.89839,359.90264 C 241.89839,358.03242 262.62422,332.00001 264.11321,332.00001 C 264.64122,332.00001 274.29976,338.33339 285.57663,346.07418 L 306.08003,360.14834 L 324.73921,352.1184 C 335.00176,347.70193 350.14839,341.11786 358.39839,337.48713 C 386.47474,325.13104 398.77571,320.00001 400.3214,320.00001 C 401.70077,320.00001 401.86614,329.47779 401.87866,409.25001 C 401.89383,505.9394 401.72585,509.50876 396.43339,524.95314 C 393.28083,534.15289 385.0958,548.74388 376.77335,560.00001 C 364.67435,576.36391 332.78979,606.09628 327.51264,605.93566 C 326.3498,605.90026 311.41721,596.56276 294.32911,585.18566 z M 343.44127,545.74415 C 353.48552,534.57906 361.52187,520.10067 366.88926,503.50001 L 370.12249,493.50001 L 369.94918,435.02208 C 369.85386,402.85923 369.55271,376.321 369.27996,376.04825 C 368.51801,375.2863 356.45549,379.85658 333.64839,389.54844 L 312.89839,398.36614 L 312.90522,469.93307 L 312.91205,541.50001 L 320.92608,547.00001 C 332.95038,555.25225 332.81191,555.19777 335.99757,552.92939 C 337.49688,551.86179 340.84655,548.62843 343.44127,545.74415 z M 434.89839,793.30919 C 410.14394,790.68704 387.7129,786.36918 367.39839,780.31579 C 257.54072,747.57998 172.01753,663.00131 139.56644,555.00001 C 117.4805,481.49524 120.86821,402.24044 149.11943,331.50963 C 192.66129,222.49665 291.26879,142.91143 406.06092,124.13449 C 429.01655,120.37956 438.33652,119.62815 462.39839,119.59238 C 487.50026,119.55507 504.43261,121.03091 525.89839,125.12711 C 588.86708,137.1431 646.01615,165.91012 692.16043,208.81815 C 732.86302,246.66612 761.03089,289.25196 781.30832,343.59716 L 783.95642,350.69431 L 796.67741,351.3431 C 803.67395,351.69994 813.81647,351.99372 819.21633,351.99595 L 829.03428,352.00001 L 828.73692,368.0622 C 828.57337,376.8964 828.19332,384.52281 827.89236,385.00976 C 827.58323,385.50995 791.24681,385.96627 744.37178,386.05863 L 661.39839,386.22211 L 661.12478,369.11106 C 660.97429,359.69998 661.19929,351.97923 661.62478,351.95382 C 662.05026,351.92842 674.40979,351.80453 689.09038,351.6785 C 703.77098,351.55247 716.13678,351.09495 716.56994,350.6618 C 717.91702,349.31472 701.31972,317.80944 691.56641,303.19965 C 645.31879,233.92392 572.67661,190.24651 490.04244,182.02976 C 476.81627,180.71461 448.59355,180.70726 434.39839,182.01528 C 421.65037,183.18994 397.38503,187.82378 384.39839,191.56355 C 353.78717,200.37867 319.49712,218.08105 292.58982,238.9601 C 239.47625,280.17422 202.19346,342.35619 190.93786,408.50001 C 175.38736,499.88288 204.48408,589.63995 270.54232,654.06251 C 294.9503,677.86612 320.31784,695.2612 350.1635,708.6605 C 427.37701,743.32574 514.60338,740.63164 590.89839,701.22511 C 630.87562,680.57678 667.99743,646.58296 694.6721,606.19566 C 701.94481,595.18429 711.87518,576.76044 711.89068,574.25001 C 711.89975,572.78029 704.16242,572.45202 680.83448,572.93241 C 672.27433,573.10868 664.28683,572.94068 663.08448,572.55907 C 660.91217,571.86961 660.89839,571.70558 660.89839,546.53961 C 660.89839,525.434 661.13804,521.12203 662.3366,520.66209 C 665.23943,519.54817 904.73631,519.92874 905.42828,521.04837 C 906.28564,522.43561 900.93579,549.13617 899.49512,550.66019 C 898.89192,551.29829 894.02033,552.9726 888.66936,554.38089 C 862.0072,561.39791 834.44108,578.40629 809.89839,602.98279 L 797.39839,615.50001 L 778.97759,615.54723 C 763.96061,615.58573 760.40041,615.8629 759.7105,617.04723 C 747.80395,637.48668 736.25799,654.70038 725.20624,668.48915 C 713.78651,682.73702 688.34952,708.19942 674.49124,719.2548 C 622.90243,760.40957 564.00635,784.76729 497.40452,792.49278 C 485.53319,793.8698 445.16803,794.39702 434.89839,793.30919 z "
     style="fill:#3b3d8d" />
</svg>
